<?xml version="1.0" encoding="utf-8"?>
<!-- Generator: Adobe Illustrator 24.0.1, SVG Export Plug-In . SVG Version: 6.00 Build 0)  -->
<svg version="1.1" xmlns="http://www.w3.org/2000/svg" xmlns:xlink="http://www.w3.org/1999/xlink" x="0px" y="0px"
	 viewBox="0 0 512 512" style="enable-background:new 0 0 512 512;" xml:space="preserve">
<style type="text/css">
	.st0{display:none;}
	.st1{display:inline;fill:none;stroke:#000000;stroke-width:0.3629;stroke-miterlimit:1;}
	.st2{display:inline;}
	.st3{fill:#FFFFFF;}
	.st4{opacity:0.79;fill:#FFCC5A;}
	.st5{opacity:0.89;fill:#FF5555;}
	.st6{opacity:0.79;fill:#5AFFB8;}
	.st7{opacity:0.79;fill:#5B57FF;}
	.st8{fill:none;}
	.st9{fill:none;stroke:#000000;stroke-width:7;stroke-miterlimit:10;}
</style>
<g id="Layer_1" class="st0">
	<path class="st1" d="M172,133L81,395h6l45-131h65l7,131h7c-2.67-43.67-5.33-87.33-8-131s-5.33-87.33-8-131
		C187.33,133,179.67,133,172,133z"/>
	<polygon class="st1" points="174,138 134,256 197,256 191,138 	"/>
	<polyline class="st1" points="202.51,256 203,133 209,133 211,395 	"/>
	<path class="st1" d="M209,133l0.04,5c40.27,6.76,60.96,14,72.96,59c-1,32-11,50-72,59v8l84,131h9l-88-131
		c45.25-8.39,73-18,73.94-66.32c0.01-0.68,0.05-0.91-0.03-1.35C281,152,256.12,140.88,211,133"/>
</g>
<g id="Layer_2" class="st0">
	<g class="st2">
		<g>
			<path class="st3" d="M436.6,533.6c-125.23,0-250.43,0-375.6,0c0-190.23,0-380.43,0-570.6c125.23,0,250.43,0,375.6,0
				C436.6,153.23,436.6,343.43,436.6,533.6z M253.95,497.3c3.96,0.51,7.45-2.79,7.45-6.28c0-49.8,0-99.61,0.01-149.41
				c0-1.54,0.13-3.09,0.22-4.89c12.2,0,24,0.02,35.8-0.01c3.49-0.01,4.59-1.55,3.66-5.46c-13.04,0-26.18,0-39.39,0
				c0-42.74,0-85.07,0-127.66c2.18,0,4.08,0.16,5.96-0.03c8.53-0.87,17.19-0.26,25.58-2.75c3.87-1.15,7.99-1.43,11.98-2.18
				c0.61-0.11,1.19-0.55,1.73-0.92c2.21-1.55,5.87-0.82,6.96,1.53c0.8,1.7,1.35,3.52,2,5.29c1.35,3.65,2.51,7.39,4.08,10.94
				c2.68,6.02,5.72,11.89,8.43,17.9c2.17,4.82,4.06,9.76,6.1,14.63c1.39,3.32,2.84,6.61,4.22,9.93c1.36,3.27,2.6,6.6,4.03,9.84
				c1.63,3.69,3.46,7.29,5.13,10.96c0.87,1.91,1.51,3.92,2.4,5.81c1.48,3.15,3.2,6.18,4.58,9.37c1.48,3.41,2.49,7.03,4.06,10.39
				c2.7,5.81,5.84,11.42,8.46,17.26c1.98,4.41,3.46,9.05,5.1,13.62c0.89,2.47,3.19,2.05,4.44,1.41c1.17-0.6,2.09-2.61,2.2-4.07
				c0.11-1.35-0.97-2.81-1.59-4.19c-1.76-3.91-3.56-7.81-5.33-11.71c-0.7-1.55-1.37-3.11-2.06-4.67c-1.42-3.18-2.9-6.33-4.25-9.54
				c-0.85-2.02-1.41-4.17-2.28-6.19c-1.61-3.72-3.35-7.39-5.02-11.08c-1.06-2.33-2.05-4.7-3.14-7.02c-1.27-2.7-2.73-5.31-3.88-8.06
				c-1.46-3.5-2.59-7.13-4.05-10.63c-1.65-3.96-3.5-7.83-5.26-11.74c-0.73-1.63-1.4-3.3-2.17-4.92c-1.6-3.38-3.39-6.69-4.83-10.14
				c-1.33-3.19-2.09-6.63-3.48-9.79c-2.7-6.12-5.65-12.12-8.52-18.16c-1.67-3.51-3.39-7-5.22-10.75c1.07-0.25,2.17-0.31,3.1-0.74
				c3.49-1.62,6.98-3.27,10.37-5.09c3.64-1.95,7.26-3.97,10.71-6.23c2.86-1.88,5.49-4.11,8.18-6.26c4.04-3.22,8.15-6.37,11.99-9.81
				c2.81-2.51,5.43-5.29,7.78-8.23c2.26-2.82,4.11-5.98,6.06-9.04c1.4-2.2,2.71-4.45,3.99-6.72c1.03-1.83,2.13-3.66,2.89-5.61
				c0.92-2.38,1.5-4.88,2.25-7.33c1.06-3.43,2.9-6.82,3.06-10.29c0.54-11.55,1.75-23.24-3.24-34.33c-1.53-3.41-2.51-7.07-3.96-10.52
				c-0.7-1.65-1.87-3.11-2.93-4.58c-1.84-2.56-3.74-5.08-5.67-7.57c-2.58-3.34-4.92-6.92-7.87-9.89c-4.27-4.3-8.9-8.27-13.55-12.16
				c-2.48-2.07-5.13-4.2-8.07-5.4c-5.21-2.13-9.38-6.05-15.12-7.43c-5.2-1.25-9.9-4.46-14.98-6.39c-4.18-1.58-8.56-2.72-12.92-3.73
				c-5.85-1.36-11.77-2.46-17.67-3.59c-3.46-0.66-6.93-1.5-10.43-1.69c-5.25-0.29-10.52-0.07-15.87-0.07
				c-0.05,0.47-0.12,0.85-0.13,1.23c-0.87,29.51,1.27,59.05-1.47,88.54c-0.78,8.33-0.25,16.79-0.27,25.19c-0.03,17-0.01,34-0.03,51
				c0,1.19-0.23,2.38-0.35,3.57c-0.3,0.03-0.6,0.05-0.9,0.08c-0.77-2.3-1.6-4.57-2.28-6.89c-0.33-1.13-0.22-2.4-0.57-3.52
				c-0.93-2.93-2.19-5.76-2.96-8.72c-0.93-3.58-1.49-7.25-2.22-10.89c-0.08-0.38-0.28-0.74-0.4-1.12c-1-3.17-2.07-6.32-2.95-9.52
				c-0.83-3.05-1.37-6.19-2.18-9.25c-1.02-3.84-2.18-7.65-3.27-11.48c-0.14-0.48-0.14-1-0.29-1.47c-1.04-3.27-2.25-6.5-3.12-9.81
				c-0.99-3.79-1.73-7.65-2.51-11.49c-0.43-2.13-0.56-4.34-1.08-6.44c-1-3.99-2.2-7.93-3.3-11.89c-0.11-0.38-0.03-0.82-0.17-1.18
				c-1.03-2.74-2.24-5.41-3.12-8.2c-1.32-4.16-2.43-8.39-3.58-12.6c-1.22-4.45-2.4-8.91-3.57-13.38c-1.23-4.68-2.48-9.36-3.62-14.06
				c-1.29-5.33-2.71-10.65-3.55-16.06c-0.37-2.39-0.86-4.18-3.21-5.25c-0.8,0.74-2.03,1.37-2.38,2.31
				c-1.33,3.64-2.8,7.32-3.41,11.12c-0.77,4.78-2.19,9.3-3.62,13.89c-1.33,4.28-2.08,8.75-3,13.15c-0.78,3.71-1.45,7.44-2.17,11.15
				c-0.06,0.29-0.12,0.59-0.21,0.87c-1.03,2.93-2.3,5.8-3.06,8.8c-0.93,3.73-1.44,7.57-2.13,11.36c-0.05,0.29-0.07,0.6-0.15,0.88
				c-1.13,3.93-2.32,7.84-3.39,11.79c-0.81,3.01-1.42,6.07-2.21,9.08c-0.98,3.73-2.06,7.43-3.07,11.14
				c-0.16,0.57-0.14,1.2-0.32,1.77c-1.05,3.35-2.31,6.65-3.15,10.06c-0.92,3.75-1.46,7.6-2.17,11.41c-0.05,0.29-0.2,0.56-0.29,0.85
				c-1.06,3.56-2.2,7.09-3.13,10.68c-0.82,3.18-1.37,6.44-2.11,9.64c-0.55,2.37-1.13,4.74-1.86,7.05c-0.92,2.93-2.21,5.75-2.98,8.71
				c-1.18,4.59-2.01,9.28-3.08,13.91c-1.15,5.02-2.49,10-3.58,15.03c-0.85,3.9-1.45,7.86-2.16,11.79c-0.07,0.39-0.09,0.8-0.21,1.18
				c-1.03,3.3-2.2,6.55-3.08,9.89c-0.85,3.2-1.37,6.48-2.11,9.71c-0.56,2.44-1.18,4.87-1.88,7.28c-1.03,3.55-2.35,7.04-3.19,10.63
				c-0.93,3.96-1.47,8.01-2.18,12.03c-0.03,0.19-0.1,0.38-0.15,0.57c-1.11,3.73-2.3,7.43-3.29,11.18c-0.84,3.19-1.34,6.47-2.14,9.67
				c-0.97,3.84-2.12,7.63-3.17,11.45c-0.16,0.57-0.17,1.19-0.34,1.76c-1.06,3.66-2.18,7.3-3.2,10.97c-0.47,1.69-0.93,3.43-1.04,5.17
				c-0.17,2.81-0.05,5.63-0.05,8.45c0.35,0.1,0.7,0.2,1.05,0.3c0.59-1.53,1.24-3.04,1.74-4.61c0.24-0.74,0.05-1.62,0.27-2.37
				c1.06-3.58,2.37-7.09,3.27-10.7c0.89-3.55,1.41-7.2,2.09-10.8c0.06-0.29,0.11-0.59,0.2-0.87c1.04-3.28,2.2-6.52,3.1-9.83
				c0.84-3.11,1.37-6.3,2.12-9.44c0.59-2.45,1.26-4.87,1.97-7.29c1.01-3.45,2.23-6.84,3.08-10.33c0.88-3.65,1.42-7.38,2.11-11.08
				c0.04-0.19,0.13-0.37,0.19-0.56c1.1-3.62,2.29-7.22,3.26-10.88c0.84-3.19,1.24-6.51,2.15-9.68c1.46-5.09,3.27-10.09,4.77-15.17
				c0.78-2.64,1.23-5.38,1.8-7.91c2.11,0.25,3.57,0.58,5.02,0.58c25.9,0.03,51.8,0.05,77.71,0c2.47,0,4.94-0.7,7.41-0.69
				c4.28,0.02,5.53,1.26,5.31,5.36c-0.31,5.82-1.23,11.62-1.28,17.43c-0.28,33.7-0.38,67.4-0.53,101.1
				c-0.02,4.84-0.01,4.85-4.81,4.85c-10.93,0.01-21.88-0.33-32.7,1.68c-0.38,0.07-0.76,0.18-1.18,0.27c-0.44,2.8,1.2,3.26,3.37,3.27
				c10.7,0.05,21.4,0.11,32.1,0.17c4.41,0.02,5.04,0.67,5.04,4.99c-0.02,49.4-0.03,98.8-0.05,148.21
				C253.95,492.39,253.95,494.77,253.95,497.3z"/>
			<path d="M253.95,497.3c0-2.53,0-4.91,0-7.29c0.02-49.4,0.03-98.8,0.05-148.21c0-4.31-0.64-4.96-5.04-4.99
				c-10.7-0.06-21.4-0.13-32.1-0.17c-2.16-0.01-3.81-0.47-3.37-3.27c0.42-0.1,0.79-0.2,1.18-0.27c10.83-2.01,21.77-1.67,32.7-1.68
				c4.8,0,4.79-0.01,4.81-4.85c0.15-33.7,0.25-67.4,0.53-101.1c0.05-5.81,0.97-11.62,1.28-17.43c0.22-4.1-1.04-5.34-5.31-5.36
				c-2.47-0.01-4.94,0.69-7.41,0.69c-25.9,0.05-51.8,0.03-77.71,0c-1.46,0-2.91-0.33-5.02-0.58c-0.56,2.53-1.02,5.27-1.8,7.91
				c-1.51,5.08-3.31,10.08-4.77,15.17c-0.91,3.17-1.31,6.49-2.15,9.68c-0.96,3.66-2.16,7.26-3.26,10.88
				c-0.06,0.19-0.15,0.37-0.19,0.56c-0.69,3.69-1.23,7.43-2.11,11.08c-0.84,3.49-2.07,6.88-3.08,10.33
				c-0.71,2.41-1.38,4.84-1.97,7.29c-0.75,3.14-1.27,6.33-2.12,9.44c-0.9,3.31-2.06,6.56-3.1,9.83c-0.09,0.28-0.15,0.58-0.2,0.87
				c-0.68,3.6-1.2,7.25-2.09,10.8c-0.91,3.61-2.21,7.13-3.27,10.7c-0.22,0.75-0.03,1.63-0.27,2.37c-0.5,1.56-1.15,3.07-1.74,4.61
				c-0.35-0.1-0.7-0.2-1.05-0.3c0-2.82-0.13-5.64,0.05-8.45c0.11-1.74,0.57-3.48,1.04-5.17c1.01-3.67,2.14-7.31,3.2-10.97
				c0.16-0.57,0.18-1.18,0.34-1.76c1.05-3.82,2.2-7.61,3.17-11.45c0.81-3.2,1.31-6.48,2.14-9.67c0.98-3.76,2.18-7.46,3.29-11.18
				c0.06-0.19,0.12-0.38,0.15-0.57c0.71-4.01,1.25-8.07,2.18-12.03c0.85-3.6,2.16-7.08,3.19-10.63c0.7-2.41,1.32-4.84,1.88-7.28
				c0.74-3.23,1.26-6.51,2.11-9.71c0.88-3.33,2.05-6.59,3.08-9.89c0.12-0.38,0.14-0.79,0.21-1.18c0.71-3.93,1.31-7.89,2.16-11.79
				c1.09-5.03,2.43-10.01,3.58-15.03c1.06-4.63,1.89-9.31,3.08-13.91c0.76-2.96,2.06-5.78,2.98-8.71c0.73-2.32,1.31-4.68,1.86-7.05
				c0.74-3.2,1.29-6.46,2.11-9.64c0.93-3.59,2.08-7.12,3.13-10.68c0.09-0.29,0.23-0.56,0.29-0.85c0.71-3.81,1.25-7.65,2.17-11.41
				c0.84-3.4,2.1-6.7,3.15-10.06c0.18-0.57,0.16-1.19,0.32-1.77c1.01-3.72,2.09-7.42,3.07-11.14c0.79-3.01,1.39-6.08,2.21-9.08
				c1.07-3.95,2.26-7.86,3.39-11.79c0.08-0.28,0.09-0.59,0.15-0.88c0.69-3.79,1.2-7.63,2.13-11.36c0.75-3,2.02-5.87,3.06-8.8
				c0.1-0.28,0.16-0.58,0.21-0.87c0.72-3.72,1.39-7.45,2.17-11.15c0.93-4.4,1.67-8.87,3-13.15c1.42-4.59,2.85-9.11,3.62-13.89
				c0.61-3.79,2.08-7.47,3.41-11.12c0.35-0.95,1.58-1.57,2.38-2.31c2.35,1.07,2.84,2.86,3.21,5.25c0.85,5.41,2.27,10.73,3.55,16.06
				c1.14,4.7,2.39,9.38,3.62,14.06c1.17,4.46,2.35,8.93,3.57,13.38c1.15,4.21,2.27,8.44,3.58,12.6c0.88,2.78,2.09,5.46,3.12,8.2
				c0.14,0.36,0.06,0.8,0.17,1.18c1.1,3.96,2.3,7.9,3.3,11.89c0.53,2.11,0.65,4.31,1.08,6.44c0.77,3.84,1.51,7.7,2.51,11.49
				c0.87,3.32,2.08,6.54,3.12,9.81c0.15,0.47,0.15,0.99,0.29,1.47c1.09,3.83,2.25,7.63,3.27,11.48c0.81,3.06,1.35,6.19,2.18,9.25
				c0.87,3.2,1.95,6.35,2.95,9.52c0.12,0.38,0.32,0.73,0.4,1.12c0.74,3.63,1.29,7.31,2.22,10.89c0.77,2.96,2.04,5.79,2.96,8.72
				c0.36,1.12,0.24,2.39,0.57,3.52c0.68,2.32,1.51,4.6,2.28,6.89c0.3-0.03,0.6-0.05,0.9-0.08c0.12-1.19,0.35-2.38,0.35-3.57
				c0.03-17,0.01-34,0.03-51c0.01-8.4-0.51-16.86,0.27-25.19c2.74-29.49,0.6-59.04,1.47-88.54c0.01-0.38,0.08-0.76,0.13-1.23
				c5.36,0,10.63-0.21,15.87,0.07c3.5,0.19,6.97,1.02,10.43,1.69c5.9,1.13,11.82,2.23,17.67,3.59c4.36,1.02,8.74,2.15,12.92,3.73
				c5.08,1.92,9.78,5.13,14.98,6.39c5.74,1.38,9.91,5.31,15.12,7.43c2.94,1.2,5.59,3.33,8.07,5.4c4.66,3.89,9.29,7.86,13.55,12.16
				c2.95,2.97,5.29,6.55,7.87,9.89c1.93,2.5,3.82,5.02,5.67,7.57c1.06,1.47,2.23,2.93,2.93,4.58c1.46,3.45,2.43,7.11,3.96,10.52
				c4.98,11.09,3.77,22.78,3.24,34.33c-0.16,3.47-2.01,6.86-3.06,10.29c-0.75,2.44-1.33,4.95-2.25,7.33
				c-0.76,1.95-1.86,3.78-2.89,5.61c-1.28,2.27-2.59,4.53-3.99,6.72c-1.95,3.06-3.8,6.22-6.06,9.04c-2.35,2.94-4.97,5.72-7.78,8.23
				c-3.85,3.44-7.96,6.58-11.99,9.81c-2.68,2.14-5.31,4.38-8.18,6.26c-3.45,2.26-7.07,4.28-10.71,6.23
				c-3.39,1.82-6.88,3.47-10.37,5.09c-0.93,0.43-2.03,0.5-3.1,0.74c1.82,3.75,3.55,7.24,5.22,10.75c2.87,6.04,5.83,12.04,8.52,18.16
				c1.39,3.16,2.15,6.6,3.48,9.79c1.44,3.45,3.23,6.75,4.83,10.14c0.77,1.62,1.44,3.28,2.17,4.92c1.76,3.91,3.61,7.79,5.26,11.74
				c1.46,3.5,2.59,7.13,4.05,10.63c1.15,2.75,2.61,5.36,3.88,8.06c1.09,2.32,2.08,4.68,3.14,7.02c1.67,3.7,3.42,7.36,5.02,11.08
				c0.87,2.02,1.43,4.16,2.28,6.19c1.35,3.21,2.83,6.36,4.25,9.54c0.69,1.55,1.36,3.12,2.06,4.67c1.77,3.91,3.57,7.8,5.33,11.71
				c0.62,1.38,1.69,2.84,1.59,4.19c-0.11,1.46-1.03,3.47-2.2,4.07c-1.25,0.64-3.55,1.07-4.44-1.41c-1.64-4.56-3.12-9.2-5.1-13.62
				c-2.62-5.84-5.76-11.45-8.46-17.26c-1.56-3.37-2.58-6.98-4.06-10.39c-1.38-3.18-3.1-6.22-4.58-9.37c-0.89-1.9-1.53-3.91-2.4-5.81
				c-1.67-3.67-3.5-7.27-5.13-10.96c-1.43-3.24-2.67-6.57-4.03-9.84c-1.38-3.32-2.84-6.61-4.22-9.93c-2.04-4.88-3.93-9.82-6.1-14.63
				c-2.71-6.01-5.75-11.88-8.43-17.9c-1.58-3.55-2.73-7.29-4.08-10.94c-0.65-1.77-1.21-3.59-2-5.29c-1.1-2.35-4.75-3.07-6.96-1.53
				c-0.53,0.37-1.11,0.8-1.73,0.92c-3.99,0.75-8.11,1.03-11.98,2.18c-8.39,2.49-17.05,1.89-25.58,2.75
				c-1.87,0.19-3.78,0.03-5.96,0.03c0,42.59,0,84.92,0,127.66c13.21,0,26.36,0,39.39,0c0.94,3.91-0.16,5.45-3.66,5.46
				c-11.8,0.03-23.6,0.01-35.8,0.01c-0.08,1.8-0.22,3.34-0.22,4.89c-0.01,49.8-0.01,99.61-0.01,149.41
				C261.4,494.51,257.91,497.81,253.95,497.3z M261.58,17.97c0.2,0.37,0.4,0.73,0.6,1.1c0.27,1.51,0.81,3.03,0.75,4.52
				c-0.34,7.92-1.19,15.82-1.22,23.74c-0.19,48.99-0.22,97.97-0.29,146.96c0,0.88,0.09,1.75,0.14,2.74
				c10.89,0.77,21.51-0.13,32.04-2.16c1.96-0.38,3.87-1.1,5.77-1.75c3.03-1.04,6.01-2.22,9.06-3.22c2.43-0.8,5.01-1.21,7.38-2.15
				c4-1.57,7.89-3.43,11.83-5.15c1.85-0.81,3.87-1.33,5.56-2.38c5.26-3.28,10.47-6.65,15.58-10.17c3.43-2.36,6.78-4.87,9.92-7.6
				c4.48-3.89,8.43-8.29,11.56-13.4c1.74-2.85,3.95-5.43,5.48-8.38c1.67-3.21,2.53-6.84,4.21-10.04c2.45-4.66,3.51-9.53,3.45-14.74
				c-0.03-2.6-0.06-5.21,0.15-7.79c0.12-1.43,1.24-2.91,1.02-4.22c-0.82-4.77-1.84-9.53-3.1-14.2c-1.11-4.13-2.28-8.31-4.08-12.16
				c-1.83-3.94-4.22-7.67-6.8-11.18c-2.87-3.91-6-7.7-9.42-11.13c-4.2-4.23-8.61-8.31-13.33-11.94c-4.58-3.53-9.59-6.52-14.55-9.53
				c-2.54-1.54-5.32-2.71-8.07-3.86c-3.82-1.59-7.69-3.11-11.6-4.45c-2.6-0.89-5.32-1.42-7.98-2.12c-4.45-1.16-8.89-2.34-13.34-3.48
				c-0.57-0.15-1.2-0.06-1.79-0.16c-6.05-1.02-12.09-2.14-18.16-3.06c-1.96-0.3-4.02-0.28-5.98-0.04
				C264.74,16.76,263.17,17.48,261.58,17.97z M205.08,19.86c-0.61,0.4-1.99,0.79-2.23,1.54c-0.91,2.85-1.45,5.81-2.14,8.73
				c-0.67,2.85-1.23,5.73-2.02,8.54c-0.94,3.31-2.36,6.49-3.05,9.84c-0.8,3.87-1.03,7.85-1.53,11.78c-0.07,0.58-0.23,1.17-0.41,1.73
				c-1.02,3.23-2.24,6.41-3.04,9.69c-0.89,3.66-1.27,7.44-2.12,11.11c-1.05,4.52-2.35,8.99-3.54,13.48
				c-0.13,0.47-0.28,0.94-0.43,1.41c-0.95,2.93-2.07,5.81-2.8,8.79c-0.89,3.68-1.46,7.43-2.16,11.16c-0.04,0.2-0.05,0.4-0.11,0.59
				c-1.08,3.41-2.36,6.77-3.2,10.24c-0.93,3.84-1.47,7.77-2.18,11.66c-0.04,0.19-0.13,0.38-0.19,0.57
				c-1.04,3.38-2.2,6.73-3.09,10.15c-0.84,3.2-1.35,6.49-2.1,9.72c-0.55,2.36-1.21,4.69-1.9,7.01c-1,3.36-2.29,6.66-3.07,10.07
				c-0.93,4.06-1.46,8.2-2.18,12.31c-0.05,0.29-0.17,0.57-0.26,0.85c-0.61,1.92-1.22,3.85-1.91,6.05c30.91,0,60.95,0,91.39,0
				c-0.83-4.28-1.45-8.27-2.4-12.18c-0.83-3.39-2.16-6.66-3.03-10.04c-0.89-3.48-1.46-7.05-2.24-10.57
				c-0.57-2.56-1.17-5.13-1.91-7.64c-0.97-3.32-2.26-6.56-3.11-9.9c-0.88-3.45-1.42-6.99-2.11-10.49c-0.06-0.29-0.17-0.57-0.27-0.84
				c-1-2.75-2.21-5.44-2.95-8.26c-0.96-3.64-1.56-7.38-2.28-11.08c-0.43-2.22-0.66-4.5-1.25-6.68c-0.93-3.44-2.23-6.79-3.13-10.24
				c-0.88-3.38-1.4-6.85-2.18-10.25c-0.51-2.24-1.2-4.43-1.84-6.64c-1.1-3.83-2.25-7.64-3.31-11.49c-0.78-2.87-1.42-5.77-2.16-8.65
				c-0.52-2.04-1.06-4.08-1.67-6.1c-1.04-3.46-2.3-6.87-3.18-10.37c-0.92-3.6-1.33-7.33-2.28-10.92
				C208.27,29.85,206.73,25.26,205.08,19.86z"/>
			<path class="st3" d="M261.58,17.97c1.59-0.49,3.16-1.21,4.79-1.4c1.97-0.23,4.03-0.25,5.98,0.04c6.07,0.92,12.11,2.03,18.16,3.06
				c0.59,0.1,1.22,0.01,1.79,0.16c4.45,1.14,8.89,2.32,13.34,3.48c2.66,0.7,5.39,1.22,7.98,2.12c3.92,1.34,7.78,2.86,11.6,4.45
				c2.75,1.15,5.53,2.32,8.07,3.86c4.96,3.01,9.97,6,14.55,9.53c4.71,3.63,9.12,7.72,13.33,11.94c3.42,3.44,6.55,7.22,9.42,11.13
				c2.57,3.51,4.96,7.25,6.8,11.18c1.79,3.85,2.97,8.03,4.08,12.16c1.26,4.68,2.29,9.43,3.1,14.2c0.22,1.31-0.9,2.79-1.02,4.22
				c-0.21,2.59-0.19,5.19-0.15,7.79c0.06,5.2-1,10.07-3.45,14.74c-1.68,3.2-2.54,6.83-4.21,10.04c-1.53,2.95-3.74,5.53-5.48,8.38
				c-3.13,5.11-7.07,9.51-11.56,13.4c-3.14,2.73-6.49,5.24-9.92,7.6c-5.11,3.52-10.32,6.89-15.58,10.17
				c-1.69,1.05-3.71,1.57-5.56,2.38c-3.94,1.72-7.83,3.58-11.83,5.15c-2.37,0.93-4.95,1.35-7.38,2.15c-3.04,1-6.03,2.18-9.06,3.22
				c-1.9,0.65-3.81,1.37-5.77,1.75c-10.53,2.04-21.15,2.93-32.04,2.16c-0.05-0.99-0.14-1.86-0.14-2.74
				c0.07-48.99,0.1-97.97,0.29-146.96c0.03-7.91,0.88-15.82,1.22-23.74c0.06-1.49-0.48-3.02-0.75-4.52
				C261.98,18.7,261.78,18.34,261.58,17.97z"/>
			<path class="st3" d="M205.08,19.86c1.65,5.41,3.19,9.99,4.42,14.66c0.95,3.59,1.36,7.32,2.28,10.92
				c0.89,3.5,2.14,6.91,3.18,10.37c0.61,2.02,1.14,4.05,1.67,6.1c0.74,2.88,1.38,5.78,2.16,8.65c1.05,3.84,2.21,7.66,3.31,11.49
				c0.63,2.21,1.32,4.41,1.84,6.64c0.78,3.41,1.3,6.88,2.18,10.25c0.9,3.45,2.19,6.8,3.13,10.24c0.59,2.18,0.81,4.46,1.25,6.68
				c0.72,3.7,1.32,7.44,2.28,11.08c0.74,2.82,1.95,5.51,2.95,8.26c0.1,0.28,0.21,0.56,0.27,0.84c0.7,3.5,1.23,7.04,2.11,10.49
				c0.86,3.35,2.14,6.58,3.11,9.9c0.74,2.52,1.34,5.08,1.91,7.64c0.78,3.52,1.35,7.08,2.24,10.57c0.87,3.38,2.2,6.65,3.03,10.04
				c0.95,3.91,1.57,7.89,2.4,12.18c-30.44,0-60.48,0-91.39,0c0.7-2.2,1.3-4.13,1.91-6.05c0.09-0.28,0.21-0.56,0.26-0.85
				c0.71-4.11,1.24-8.25,2.18-12.31c0.79-3.41,2.07-6.71,3.07-10.07c0.69-2.32,1.35-4.65,1.9-7.01c0.75-3.23,1.26-6.52,2.1-9.72
				c0.89-3.42,2.05-6.77,3.09-10.15c0.06-0.19,0.15-0.37,0.19-0.57c0.71-3.89,1.25-7.82,2.18-11.66c0.84-3.47,2.12-6.83,3.2-10.24
				c0.06-0.19,0.07-0.39,0.11-0.59c0.71-3.72,1.27-7.48,2.16-11.16c0.73-2.98,1.85-5.87,2.8-8.79c0.15-0.47,0.3-0.93,0.43-1.41
				c1.19-4.49,2.49-8.96,3.54-13.48c0.85-3.67,1.22-7.45,2.12-11.11c0.8-3.28,2.02-6.46,3.04-9.69c0.18-0.56,0.34-1.14,0.41-1.73
				c0.5-3.93,0.73-7.92,1.53-11.78c0.69-3.35,2.12-6.54,3.05-9.84c0.8-2.81,1.36-5.69,2.02-8.54c0.68-2.92,1.22-5.88,2.14-8.73
				C203.09,20.64,204.47,20.26,205.08,19.86z"/>
		</g>
	</g>
</g>
<g id="Layer_3">
	<path class="st4" d="M312.26,250.87h-47.86h-2.37V30.81h-11.61v220.06h-39.45c-0.32,2.51,0.28,5.12,1.68,7.23l37.77,0.06v61.64
		h11.61v-61.62l50.22,0.09V250.87z"/>
	<path class="st5" d="M310,254.63h-47.86h-2.37v-3V31h-10.24v223.63h-40.82c-0.32,2.51,0.28,5.12,1.68,7.23l39.61,0.07v59.82h9.77
		v-59.81l50.22,0.09V254.63z"/>
	<path class="st6" d="M302.18,251.19h-47.86h-2.37V22h-11.61v229.19h-39.45c-0.32,2.53,0.28,5.17,1.68,7.3l37.77,0.06v62.22h11.61
		v-62.2l50.22,0.09V251.19z"/>
	<path class="st7" d="M304.83,249.06h-47.86h-2.37V22H243v227.06h-39.45c-0.32,2.51,0.28,5.12,1.68,7.23l37.77,0.06V318h11.61
		v-61.62l50.22,0.09V249.06z"/>
	<rect x="249.01" y="91" width="6.99" height="233"/>
	<path d="M212.3,259.28c-1.45-1.54-2.08-3.45-1.74-5.28h55.62H316v5.41L212.3,259.28z"/>
	<g>
		<polygon class="st8" points="157.57,219 245.14,219 200.32,44.83 		"/>
		<path class="st9" d="M316.7,211.71c37.25-12.41,70.51-48.27,64.27-94.29C369.28,31.23,252.5,29.5,252.5,29.5v192
			c0,0,26,1,60.41-8.58C314.5,212.5,316.7,211.71,316.7,211.71z"/>
		<path d="M317.7,212.71c-1.27,0.42-6.25,2.6-7.52,3.19l69.64,150.67l7.49-3.26L317.7,212.71z"/>
		<path d="M252,220.64l0.97,0.23L203.91,26l-7.4-0.03l-80.47,332.04l6.99,1.72L156.1,225H252l-2.45-2.15L252,223V220.64z
			 M157.57,219l42.75-174.17L245.14,219H157.57z"/>
		<path class="st9" d="M249.5,25.5v196c0,0,124,3,136-90C385.5,18.5,249.5,25.5,249.5,25.5z"/>
	</g>
	<path d="M249,25"/>
</g>
</svg>
