<?xml version="1.0" encoding="UTF-8" standalone="no"?>
<svg
   xmlns:dc="http://purl.org/dc/elements/1.1/"
   xmlns:cc="http://creativecommons.org/ns#"
   xmlns:rdf="http://www.w3.org/1999/02/22-rdf-syntax-ns#"
   xmlns:svg="http://www.w3.org/2000/svg"
   xmlns="http://www.w3.org/2000/svg"
   viewBox="0 0 66.666664 66.666664"
   height="66.666664"
   width="66.666664"
   xml:space="preserve"
   id="svg2"
   version="1.1"><metadata
     id="metadata8"><rdf:RDF><cc:Work
         rdf:about=""><dc:format>image/svg+xml</dc:format><dc:type
           rdf:resource="http://purl.org/dc/dcmitype/StillImage" /></cc:Work></rdf:RDF></metadata><defs
     id="defs6"><clipPath
       id="clipPath26"
       clipPathUnits="userSpaceOnUse"><path
         id="path24"
         d="M 0,50 H 50 V 0 H 0 Z" /></clipPath><clipPath
       id="clipPath34"
       clipPathUnits="userSpaceOnUse"><path
         id="path32"
         d="M 22.4067,31.1132 H 33.9756 V 16.3734 H 22.4067 Z" /></clipPath><clipPath
       id="clipPath50"
       clipPathUnits="userSpaceOnUse"><path
         id="path48"
         d="M 36.0667,31.1132 H 47.4681 V 16.3734 H 36.0667 Z" /></clipPath><clipPath
       id="clipPath82"
       clipPathUnits="userSpaceOnUse"><path
         id="path80"
         d="M 0,50 H 50 V 0 H 0 Z" /></clipPath><clipPath
       id="clipPath90"
       clipPathUnits="userSpaceOnUse"><path
         id="path88"
         d="M 23.3204,31.1132 H 34.8892 V 16.3734 H 23.3204 Z" /></clipPath><clipPath
       id="clipPath106"
       clipPathUnits="userSpaceOnUse"><path
         id="path104"
         d="M 36.9804,31.1132 H 48.3817 V 16.3734 H 36.9804 Z" /></clipPath></defs><g
     transform="matrix(1.3333333,0,0,-1.3333333,0,66.666667)"
     id="g10"><g
       transform="translate(18.5938,17.1602)"
       id="g12"><path
         id="path14"
         style="fill:#a97b50;fill-opacity:1;fill-rule:nonzero;stroke:none"
         d="M 0,0 H -4.338 L -6.919,5.414 H -7.557 L -10.037,0 h -4.401 l 7.433,14.953 z" /></g><g
       transform="translate(18.5938,17.1602)"
       id="g16"><path
         id="path18"
         style="fill:none;stroke:#754c29;stroke-width:2;stroke-linecap:butt;stroke-linejoin:miter;stroke-miterlimit:4;stroke-dasharray:none;stroke-opacity:1"
         d="M 0,0 H -4.338 L -6.919,5.414 H -7.557 L -10.037,0 h -4.401 l 7.433,14.953 z" /></g><g
       id="g20"><g
         clip-path="url(#clipPath26)"
         id="g22"><g
           id="g28"><g
             id="g30" /><g
             id="g42"><g
               style="opacity:0.77999902"
               id="g40"
               clip-path="url(#clipPath34)"><g
                 id="g38"
                 transform="translate(28.2227,28.1318)"><path
                   id="path36"
                   style="fill:#21409a;fill-opacity:1;fill-rule:nonzero;stroke:none"
                   d="M 0,0 H -2.226 V -3.653 H 0 c 1.344,0 1.974,0.693 1.974,1.847 C 1.974,-0.714 1.344,0 0,0 m 0.21,2.981 c 3.611,0 5.417,-2.078 5.417,-4.64 0,-1.847 -1.008,-3.59 -3.275,-4.262 l 3.401,-5.838 H 1.7 l -3.064,5.565 h -0.862 v -5.565 h -3.59 v 14.74 z" /></g></g></g></g><g
           id="g44"><g
             id="g46" /><g
             id="g58"><g
               style="opacity:0.77999902"
               id="g56"
               clip-path="url(#clipPath50)"><g
                 id="g54"
                 transform="translate(36.0664,31.1133)"><path
                   id="path52"
                   style="fill:#21409a;fill-opacity:1;fill-rule:nonzero;stroke:none"
                   d="M 0,0 H 11.401 V -2.876 H 7.495 V -14.74 h -3.59 v 11.864 l -3.905,0 z" /></g></g></g></g></g></g><g
       transform="translate(9.3027,36.4014)"
       id="g60"><path
         id="path62"
         style="fill:none;stroke:#754c29;stroke-width:2;stroke-linecap:butt;stroke-linejoin:miter;stroke-miterlimit:4;stroke-dasharray:none;stroke-opacity:1"
         d="M 0,0 9.291,-19.241" /></g><g
       transform="translate(13.7207,36.4014)"
       id="g64"><path
         id="path66"
         style="fill:none;stroke:#754c29;stroke-width:2;stroke-linecap:butt;stroke-linejoin:miter;stroke-miterlimit:4;stroke-dasharray:none;stroke-opacity:1"
         d="M 0,0 -9.564,-19.241" /></g><g
       transform="translate(11.6743,22.5742)"
       id="g68"><path
         id="path70"
         style="fill:none;stroke:#754c29;stroke-width:2;stroke-linecap:butt;stroke-linejoin:miter;stroke-miterlimit:4;stroke-dasharray:none;stroke-opacity:1"
         d="M 0,0 2.581,-5.414" /></g><g
       transform="translate(11.0371,22.5742)"
       id="g72"><path
         id="path74"
         style="fill:none;stroke:#754c29;stroke-width:2;stroke-linecap:butt;stroke-linejoin:miter;stroke-miterlimit:4;stroke-dasharray:none;stroke-opacity:1"
         d="M 0,0 -2.48,-5.414" /></g><g
       id="g76"><g
         clip-path="url(#clipPath82)"
         id="g78"><g
           id="g84"><g
             id="g86" /><g
             id="g98"><g
               style="opacity:0.77999902"
               id="g96"
               clip-path="url(#clipPath90)"><g
                 id="g94"
                 transform="translate(29.1367,28.1318)"><path
                   id="path92"
                   style="fill:#00a650;fill-opacity:1;fill-rule:nonzero;stroke:none"
                   d="M 0,0 H -2.227 V -3.653 H 0 c 1.344,0 1.974,0.693 1.974,1.847 C 1.974,-0.714 1.344,0 0,0 m 0.21,2.981 c 3.611,0 5.417,-2.078 5.417,-4.64 0,-1.847 -1.008,-3.59 -3.275,-4.262 l 3.401,-5.838 H 1.7 l -3.064,5.565 h -0.863 v -5.565 h -3.589 v 14.74 z" /></g></g></g></g><g
           id="g100"><g
             id="g102" /><g
             id="g114"><g
               style="opacity:0.77999902"
               id="g112"
               clip-path="url(#clipPath106)"><g
                 id="g110"
                 transform="translate(36.9805,31.1133)"><path
                   id="path108"
                   style="fill:#00a650;fill-opacity:1;fill-rule:nonzero;stroke:none"
                   d="M 0,0 H 11.401 V -2.876 H 7.495 V -14.74 h -3.59 v 11.864 l -3.905,0 z" /></g></g></g></g></g></g></g></svg>